<mxfile host="app.diagrams.net" modified="2021-12-24T07:48:16.693Z" agent="5.0 (Windows NT 10.0; Win64; x64) AppleWebKit/537.36 (KHTML, like Gecko) Chrome/96.0.4664.110 Safari/537.36" etag="mC7IEDbatH2MLLI6m13_" version="16.0.3" type="github">
  <diagram id="gA0RxG7rJZpZwTIYB1V7" name="Page-1">
    <mxGraphModel dx="1422" dy="772" grid="1" gridSize="10" guides="1" tooltips="1" connect="1" arrows="1" fold="1" page="1" pageScale="1" pageWidth="827" pageHeight="1169" math="0" shadow="0">
      <root>
        <mxCell id="0" />
        <mxCell id="1" parent="0" />
        <mxCell id="we9zV2qWj6Sq7xit3V_k-6" value="" style="rounded=0;whiteSpace=wrap;html=1;" vertex="1" parent="1">
          <mxGeometry x="30" y="130" width="630" height="190" as="geometry" />
        </mxCell>
        <mxCell id="we9zV2qWj6Sq7xit3V_k-1" value="站点" style="rounded=0;whiteSpace=wrap;html=1;" vertex="1" parent="1">
          <mxGeometry x="90" y="190" width="120" height="60" as="geometry" />
        </mxCell>
        <mxCell id="we9zV2qWj6Sq7xit3V_k-2" value="微服务&lt;br&gt;（RTS、FMS）" style="rounded=0;whiteSpace=wrap;html=1;" vertex="1" parent="1">
          <mxGeometry x="280" y="190" width="120" height="60" as="geometry" />
        </mxCell>
        <mxCell id="we9zV2qWj6Sq7xit3V_k-3" value="Docker集群域名" style="rounded=0;whiteSpace=wrap;html=1;" vertex="1" parent="1">
          <mxGeometry x="480" y="190" width="120" height="60" as="geometry" />
        </mxCell>
        <mxCell id="we9zV2qWj6Sq7xit3V_k-7" value="" style="rounded=0;whiteSpace=wrap;html=1;" vertex="1" parent="1">
          <mxGeometry x="140" y="380" width="400" height="190" as="geometry" />
        </mxCell>
        <mxCell id="we9zV2qWj6Sq7xit3V_k-8" value="站点" style="rounded=0;whiteSpace=wrap;html=1;" vertex="1" parent="1">
          <mxGeometry x="200" y="410" width="120" height="60" as="geometry" />
        </mxCell>
        <mxCell id="we9zV2qWj6Sq7xit3V_k-10" value="Docker集群域名" style="rounded=0;whiteSpace=wrap;html=1;" vertex="1" parent="1">
          <mxGeometry x="374" y="410" width="120" height="60" as="geometry" />
        </mxCell>
        <mxCell id="we9zV2qWj6Sq7xit3V_k-11" value="RTS" style="rounded=0;whiteSpace=wrap;html=1;dashed=1;" vertex="1" parent="1">
          <mxGeometry x="285" y="490" width="120" height="60" as="geometry" />
        </mxCell>
      </root>
    </mxGraphModel>
  </diagram>
</mxfile>
